<?xml version="1.0" encoding="utf-8"?>
<!-- Generator: Adobe Illustrator 19.1.0, SVG Export Plug-In . SVG Version: 6.00 Build 0)  -->
<svg version="1.1" id="Layer_5" xmlns="http://www.w3.org/2000/svg" xmlns:xlink="http://www.w3.org/1999/xlink" x="0px" y="0px"
	 viewBox="119 -119 310 310" style="enable-background:new 119 -119 310 310;" xml:space="preserve">
<style type="text/css">
	.st0{fill:#E8E8E8;}
	.st1{fill:#F2F2F2;}
	.st2{fill:#BCBCBC;}
</style>
<g>
	<path class="st0" d="M325.5,131c-5.3-3,2.5,22.3,7.8,38c4.1-1.8,8.1-3.9,12-6.1C339.6,151.2,330.5,133.8,325.5,131z"/>
	<path class="st0" d="M218.5,131c-4.6,2.6-12.8,17.8-18.6,29.4c3.7,2.3,7.6,4.4,11.5,6.3C216.7,151,223.6,128.1,218.5,131z"/>
	<path class="st1" d="M418.5,37.2c0-79.7-64.4-144.2-143.7-144.2S131-42.4,131,37.2c0,43.2,18.9,81.9,48.9,108.3l9.6-32.6
		c0,0,4-10.3,18-28s36-17.7,41-12c3.9,4.5,17.8,5.6,23.5,5.9c5.7-0.3,19.6-1.4,23.5-5.9c5-5.7,27-5.7,41,12s18,28,18,28l10.7,36.3
		C397.7,122.9,418.5,82.5,418.5,37.2z"/>
	<path class="st2" d="M336.5,85c-14-17.7-36-17.7-41-12c-3.9,4.5-17.8,5.6-23.5,5.9c-5.7-0.3-19.6-1.4-23.5-5.9c-5-5.7-27-5.7-41,12
		s-18,28-18,28l-9.6,32.6c6.2,5.5,12.9,10.5,20.1,14.8c5.7-11.6,13.9-26.8,18.6-29.4c5.1-2.9-1.8,20-7.1,35.8
		c19.1,9.4,40.6,14.7,63.3,14.7c20.9,0,40.7-4.5,58.6-12.5c-5.3-15.7-13.2-41-7.8-38c5,2.8,14.1,20.2,19.8,31.9
		c7-4,13.7-8.5,19.9-13.6L354.5,113C354.5,113,350.5,102.7,336.5,85z"/>
</g>
<circle class="st2" cx="272.9" cy="8.4" r="58.6"/>
</svg>
