<?xml version="1.0" encoding="utf-8"?>
<!-- Generator: Adobe Illustrator 19.1.0, SVG Export Plug-In . SVG Version: 6.00 Build 0)  -->
<svg version="1.1" id="bird" xmlns="http://www.w3.org/2000/svg" xmlns:xlink="http://www.w3.org/1999/xlink" x="0px" y="0px"
	 viewBox="48 29.2 239.6 194.8" style="enable-background:new 48 29.2 239.6 194.8;" xml:space="preserve">
<style type="text/css">
	.st0{fill:#22BDC1;}
</style>
<path id="bird_1_" class="st0" d="M48.1,198.8c0,1.2,0.6,2.4,1.9,3.4c2.1,1.4,5.8,3.5,11.1,6.2c20.3,10.5,41.6,15.7,63.9,15.7
	c27.8,0,53-7.2,75.8-21.5c10.8-6.8,20.4-15,28.8-24.7c8.4-9.6,15.1-19.6,20-30.1c5-10.4,8.7-20.9,11.1-31.4
	c2.5-10.5,3.6-20.7,3.4-30.6v-4.4c9.7-7,17.3-15,22.8-24c0.5-1,0.7-1.7,0.7-2.2c0-1.1-0.4-2-1.2-2.9c-0.8-0.8-1.8-1.2-2.9-1.2
	c-0.6,0-1.6,0.3-3,1c-1,0.3-2.2,0.7-3.7,1.2s-2.7,0.9-3.7,1.3s-1.7,0.6-2.1,0.7c2.2-2.4,4.4-5.7,6.7-9.8c2.3-4.1,3.5-7.1,3.5-9
	c0-1.1-0.4-2-1.2-2.8s-1.8-1.2-3-1.2c-0.7,0-1.3,0.2-2,0.6c-9.5,5.1-18.3,8.5-26.6,10.4c-10.1-9.6-22.1-14.4-36.1-14.4
	c-14.3,0-26.5,5-36.6,15s-15.1,22.1-15.1,36.2c0,2.5,0.2,4.5,0.5,6.1c-14.1-1.2-27.6-4.5-40.7-10.1c-13.1-5.6-24.8-13.1-35.2-22.5
	c-2.4-2.3-7.1-7.2-14-14.6c-1-1-2.2-1.5-3.5-1.5c-1,0-2,0.7-3.1,2c-2.2,3.2-3.9,7.2-5.1,11.9c-1.2,4.7-1.9,9.3-1.9,13.8
	c0,12.4,3.9,23.2,11.6,32.5l-3.6-1.7c-2.1-0.9-3.6-1.4-4.6-1.4c-1.4,0-2.6,0.4-3.6,1.2c-1,0.8-1.4,1.9-1.4,3.2
	c0,8.7,2.2,17,6.7,24.8s10.6,14.1,18.2,18.7l-1.5-0.2c-0.2,0-0.4,0-0.7-0.1c-0.3-0.1-0.5-0.1-0.7-0.2c-0.2,0-0.3-0.1-0.4-0.1
	c-1.1,0-2,0.4-2.8,1.2c-0.8,0.8-1.2,1.7-1.2,2.7c0,0.1,0.1,0.5,0.2,1.4c2.8,8.7,7.5,16,14.1,22s14.3,10.1,23.1,12.2
	C96.5,190.5,80.5,195,63.1,195c-1.2,0-3-0.1-5.6-0.4c-3.5-0.2-5.4-0.2-5.7-0.2c-1.1,0-2,0.4-2.8,1.2
	C48.5,196.8,48.1,197.7,48.1,198.8L48.1,198.8z"/>
</svg>
