<?xml version="1.0" encoding="utf-8"?>
<!-- Generator: Adobe Illustrator 19.1.0, SVG Export Plug-In . SVG Version: 6.00 Build 0)  -->
<svg version="1.1" id="Layer_1" xmlns="http://www.w3.org/2000/svg" xmlns:xlink="http://www.w3.org/1999/xlink" x="0px" y="0px"
	 viewBox="0 0 27.3 26" style="enable-background:new 0 0 27.3 26;" xml:space="preserve">
<style type="text/css">
	.st0{fill:#898989;}
	.st1{fill:#ABABAB;}
</style>
<rect x="11.8" y="7.7" class="st0" width="2.2" height="3.1"/>
<g>
	<g>
		<path class="st0" d="M13,14.1c0.4,0,0.9,0.6,1.8,0.6c0.1-0.3,0.1-0.5,0.1-0.5V8.6L12.5,9c0,0-0.3-2.9,0,5.2c0,0.1,0,0.1,0,0.2
			C12.7,14.2,12.8,14.1,13,14.1z"/>
		<path class="st1" d="M16.7,21.4c0.1,0,0.2,0,0.3,0c1.9,0,4.3-0.6,0.1-0.9c-2.9-0.2-2.7-4.1-2.4-5.8c-0.9,0-1.4-0.7-1.8-0.6
			c-0.1,0-0.3,0.1-0.5,0.3c0.2,7.9-4.7,6-4.7,6c-3.1,0.7-0.4,0.8,1.6,0.8c0.4,0,0.7,0,0.9,0c-0.9,0.7-2.4,1.3-0.8,1.2
			c1.8-0.1,3.8-2,5-1.1C14.9,21.5,16.7,21.4,16.7,21.4z"/>
	</g>
	<circle class="st0" cx="11.4" cy="13.4" r="1"/>
	<ellipse class="st0" cx="12.7" cy="12.9" rx="1.1" ry="1"/>
	<ellipse class="st0" cx="15.5" cy="13" rx="1" ry="0.9"/>
	<ellipse class="st0" cx="16.5" cy="12.1" rx="1.3" ry="1.6"/>
	<ellipse class="st0" cx="17.3" cy="11.5" rx="1.6" ry="1.4"/>
	<ellipse class="st0" cx="21.3" cy="8.7" rx="0.6" ry="1.1"/>
	<ellipse class="st0" cx="20.2" cy="11.3" rx="1.1" ry="0.8"/>
	<ellipse class="st0" cx="21" cy="10.7" rx="1.1" ry="0.9"/>
	<ellipse class="st0" cx="6.7" cy="11.1" rx="1.5" ry="1.2"/>
	<ellipse class="st0" cx="8.2" cy="11.5" rx="0.7" ry="0.7"/>
	<ellipse class="st0" cx="10.9" cy="14.5" rx="0.5" ry="0.4"/>
	<ellipse class="st0" cx="14.8" cy="14.1" rx="0.5" ry="0.4"/>
	<ellipse class="st0" cx="17.1" cy="13.5" rx="0.3" ry="0.3"/>
	<ellipse class="st0" cx="18.6" cy="12.6" rx="0.4" ry="0.5"/>
	<ellipse class="st0" cx="22" cy="8.7" rx="0.4" ry="0.3"/>
	<ellipse class="st0" cx="22.7" cy="8.7" rx="0.3" ry="0.3"/>
	<ellipse class="st0" cx="22" cy="9.9" rx="0.4" ry="0.3"/>
	<path class="st1" d="M21.6,8.7c0,0.2-0.1,0.4-0.1,0.6c0.5,0.1,0.8,0.4,0.8,0.8c0,0.5-0.5,0.9-1.1,0.9c-0.1,0-0.3,0-0.4-0.1
		c0.2,0.2,0.3,0.4,0.4,0.7c0.3,0.1,0.4,0.3,0.4,0.6c0,0.3-0.3,0.6-0.7,0.6c-0.3,0.4-0.7,0.6-1.2,0.6c-0.7,0-1.4-0.5-1.5-1.3
		c-0.3,0-0.5-0.1-0.8-0.2c0,0-0.1,0-0.1,0.1c-0.1,0.8-0.8,1.4-1.6,1.4c-0.5,0-1-0.3-1.3-0.6c0,0-0.1,0-0.2,0c0,0-0.1,0-0.1,0
		c-0.6,0.4-1.3,0.6-2,0.6c-0.2,0-0.4,0-0.6-0.1c-0.2,0.9-1,1.5-1.8,1.5c-1.1,0-1.9-0.9-1.9-2.1c0-0.4,0.1-0.8,0.3-1.1
		c-0.1-0.1-0.2-0.1-0.4-0.2c-0.4,0.4-1,0.7-1.6,0.7c-1.1,0-2.1-0.9-2.1-1.9c0-0.4,0.1-0.7,0.3-1C4.2,9.1,4.1,8.8,4.1,8.6
		c0-0.5,0.5-1,1.1-1.1c-0.3-0.3-0.5-0.6-0.5-1C4.7,5.7,5.5,5,6.5,5c0.4,0,0.7,0.1,1,0.3c0.1-0.1,0.1-0.1,0.2-0.1
		C7.4,5,7.3,4.7,7.3,4.4c0-0.5,0.4-0.9,0.9-1c0-0.1,0-0.3,0-0.4c0-1.3,1-2.3,2.2-2.3c1,0,1.8,0.7,2.1,1.7c0.1-0.1,0.3-0.1,0.4-0.1
		c0.3,0,0.5,0.1,0.7,0.2c0.2-1,1-1.8,2-1.8c0.9,0,1.7,0.7,2,1.6c0.4,0,0.8,0.1,1.1,0.3c0.2-0.2,0.5-0.3,0.8-0.3
		c0.6,0,1.1,0.5,1.1,1.1c0,0.6-0.4,1-1,1.1c0,0,0,0,0,0c0.4,0.1,0.6,0.3,0.8,0.5c0.1,0,0.1,0,0.2,0c0.1,0,0.2,0,0.2,0
		c0.1-0.3,0.4-0.6,0.7-0.6c0.4,0,0.7,0.4,0.7,0.8c0,0.2-0.1,0.4-0.2,0.5c0.1,0.2,0.2,0.4,0.2,0.6v0c0.7,0,1.3,0.6,1.3,1.3
		c0,0.7-0.6,1.3-1.4,1.3C22,8.8,21.7,8.8,21.6,8.7z"/>
</g>
</svg>
